<?xml version="1.0" encoding="utf-8"?>
<!-- Generator: Adobe Illustrator 19.2.1, SVG Export Plug-In . SVG Version: 6.00 Build 0)  -->
<svg version="1.1" id="Layer_1" xmlns="http://www.w3.org/2000/svg" xmlns:xlink="http://www.w3.org/1999/xlink" x="0px" y="0px"
	 viewBox="0 0 565.6 65.3" style="enable-background:new 0 0 565.6 65.3;" xml:space="preserve">
<style type="text/css">
	.st0{fill:#FFFFFF;stroke:#000000;stroke-width:4;stroke-miterlimit:10;}
	.st1{enable-background:new    ;}
</style>
<polygon class="st0" points="543.2,63.3 3.7,63.3 23.7,32.6 3.7,2 543.2,2 563.2,32.6 "/>
<g class="st1">
	<path d="M67.9,23c1.4,0.6,2.6,1.4,3.6,2.4l-2.9,3.4c-0.6-0.8-1.4-1.4-2.3-1.9c-0.9-0.5-1.8-0.7-2.7-0.7c-1,0-2,0.2-2.8,0.7
		c-0.8,0.5-1.5,1.2-2,2c-0.5,0.9-0.7,1.8-0.7,2.9c0,1.1,0.2,2.1,0.7,2.9c0.5,0.9,1.1,1.6,2,2.1s1.8,0.8,2.8,0.8
		c0.8,0,1.7-0.2,2.6-0.6s1.7-1,2.4-1.7l2.9,3.1c-1.1,1.1-2.3,2-3.8,2.6c-1.4,0.7-2.9,1-4.3,1c-1.9,0-3.7-0.4-5.3-1.3
		c-1.6-0.9-2.8-2.1-3.7-3.6c-0.9-1.5-1.3-3.3-1.3-5.1c0-1.9,0.5-3.6,1.4-5.1s2.2-2.7,3.8-3.6c1.6-0.9,3.4-1.3,5.3-1.3
		C65,22.1,66.5,22.4,67.9,23z"/>
	<path d="M86.9,41.9v-7.6h-8.1v7.6h-5V22.3h5v8.1h8.1v-8.1h5v19.6H86.9z"/>
	<path d="M110.5,23.4c1.6,0.9,2.9,2.1,3.8,3.6c0.9,1.5,1.4,3.2,1.4,5.1c0,1.9-0.5,3.6-1.4,5.1c-0.9,1.5-2.2,2.7-3.8,3.6
		c-1.6,0.9-3.4,1.3-5.4,1.3c-2,0-3.8-0.4-5.4-1.3s-2.9-2.1-3.8-3.6c-0.9-1.5-1.4-3.2-1.4-5.1c0-1.9,0.5-3.6,1.4-5.1
		c0.9-1.5,2.2-2.7,3.8-3.6c1.6-0.9,3.4-1.3,5.4-1.3S108.8,22.6,110.5,23.4z M102.3,27.1c-0.9,0.5-1.5,1.2-2,2.1
		c-0.5,0.9-0.8,1.9-0.8,3s0.3,2.1,0.8,3c0.5,0.9,1.2,1.6,2,2.1c0.9,0.5,1.8,0.8,2.8,0.8c1,0,1.9-0.3,2.7-0.8c0.8-0.5,1.5-1.2,2-2.1
		c0.5-0.9,0.7-1.9,0.7-3s-0.2-2.1-0.7-3c-0.5-0.9-1.1-1.6-2-2.1c-0.8-0.5-1.7-0.8-2.7-0.8C104.1,26.3,103.2,26.6,102.3,27.1z"/>
	<path d="M132.6,23.4c1.6,0.9,2.9,2.1,3.8,3.6c0.9,1.5,1.4,3.2,1.4,5.1c0,1.9-0.5,3.6-1.4,5.1c-0.9,1.5-2.2,2.7-3.8,3.6
		c-1.6,0.9-3.4,1.3-5.4,1.3c-2,0-3.8-0.4-5.4-1.3s-2.9-2.1-3.8-3.6c-0.9-1.5-1.4-3.2-1.4-5.1c0-1.9,0.5-3.6,1.4-5.1
		c0.9-1.5,2.2-2.7,3.8-3.6c1.6-0.9,3.4-1.3,5.4-1.3C129.2,22.1,131,22.6,132.6,23.4z M124.5,27.1c-0.9,0.5-1.5,1.2-2,2.1
		c-0.5,0.9-0.8,1.9-0.8,3s0.3,2.1,0.8,3c0.5,0.9,1.2,1.6,2,2.1c0.9,0.5,1.8,0.8,2.8,0.8c1,0,1.9-0.3,2.7-0.8c0.8-0.5,1.5-1.2,2-2.1
		c0.5-0.9,0.7-1.9,0.7-3s-0.2-2.1-0.7-3c-0.5-0.9-1.1-1.6-2-2.1c-0.8-0.5-1.7-0.8-2.7-0.8C126.3,26.3,125.4,26.6,124.5,27.1z"/>
	<path d="M152.1,22.7c1.4,0.4,2.6,0.9,3.6,1.6l-1.9,3.9c-1-0.6-2.1-1.1-3.3-1.5c-1.2-0.4-2.2-0.6-3-0.6c-0.7,0-1.2,0.1-1.6,0.4
		c-0.4,0.2-0.6,0.6-0.6,1.1c0,0.6,0.3,1.1,0.9,1.4c0.6,0.3,1.6,0.7,2.9,1.1c1.4,0.4,2.5,0.8,3.4,1.2s1.6,1,2.3,1.8
		c0.6,0.8,1,1.8,1,3.1c0,1.3-0.3,2.4-1,3.3c-0.7,0.9-1.6,1.6-2.8,2c-1.2,0.5-2.5,0.7-4,0.7c-1.6,0-3.2-0.3-4.8-0.8s-3-1.3-4.1-2.3
		l1.9-3.8c1,0.9,2.2,1.6,3.5,2.1c1.3,0.6,2.5,0.8,3.6,0.8c0.8,0,1.4-0.1,1.9-0.4s0.7-0.7,0.7-1.3c0-0.6-0.3-1.1-0.9-1.5
		s-1.6-0.7-2.9-1c-1.3-0.4-2.4-0.7-3.3-1.1c-0.9-0.4-1.6-0.9-2.2-1.7c-0.6-0.8-0.9-1.8-0.9-3c0-1.2,0.3-2.2,1-3.1s1.6-1.6,2.7-2.1
		c1.2-0.5,2.6-0.7,4.1-0.7C149.4,22.1,150.8,22.3,152.1,22.7z"/>
	<path d="M163.5,26.2v3.9h9.4V34h-9.4V38h10.7v3.9h-15.7V22.3h15.4v3.9H163.5z"/>
	<path d="M188.3,38.3l-1.4,3.6h-5.1l8.4-19.6h5.1l8.3,19.6h-5.3l-1.4-3.6H188.3z M192.6,27.3l-2.9,7.2h5.7L192.6,27.3z"/>
	<path d="M225.4,23c1.4,0.6,2.6,1.4,3.6,2.4l-2.9,3.4c-0.6-0.8-1.4-1.4-2.3-1.9c-0.9-0.5-1.8-0.7-2.7-0.7c-1,0-2,0.2-2.8,0.7
		c-0.8,0.5-1.5,1.2-2,2c-0.5,0.9-0.7,1.8-0.7,2.9c0,1.1,0.2,2.1,0.7,2.9c0.5,0.9,1.1,1.6,2,2.1s1.8,0.8,2.8,0.8
		c0.8,0,1.7-0.2,2.6-0.6s1.7-1,2.4-1.7l2.9,3.1c-1.1,1.1-2.3,2-3.8,2.6c-1.4,0.7-2.9,1-4.3,1c-1.9,0-3.7-0.4-5.3-1.3
		c-1.6-0.9-2.8-2.1-3.7-3.6c-0.9-1.5-1.3-3.3-1.3-5.1c0-1.9,0.5-3.6,1.4-5.1s2.2-2.7,3.8-3.6c1.6-0.9,3.4-1.3,5.3-1.3
		C222.5,22.1,223.9,22.4,225.4,23z"/>
	<path d="M244.3,41.9v-7.6h-8.1v7.6h-5V22.3h5v8.1h8.1v-8.1h5v19.6H244.3z"/>
	<path d="M257.7,38.3l-1.4,3.6h-5.1l8.4-19.6h5.1l8.3,19.6h-5.3l-1.4-3.6H257.7z M262,27.3l-2.9,7.2h5.7L262,27.3z"/>
	<path d="M283.7,36.4h-0.2h-3.8v5.5h-5V22.3h8.8c2.6,0,4.6,0.6,6,1.8s2.1,2.9,2.1,5.1c0,1.5-0.3,2.8-0.9,3.8
		c-0.6,1.1-1.5,1.9-2.6,2.5l4.1,6.5h-5.6L283.7,36.4z M283.5,32.5c1.1,0,1.9-0.3,2.5-0.8s0.9-1.3,0.9-2.4c0-1-0.3-1.8-0.9-2.3
		s-1.4-0.8-2.5-0.8h-3.8v6.2H283.5z"/>
	<path d="M295,41.9V22.3h5v19.6H295z"/>
	<path d="M313,26.3v15.6h-5V26.3h-5.9v-4h16.7v4H313z"/>
	<path d="M331.2,41.9h-5v-6.2L319,22.3h5l4.7,8.5l4.6-8.5h5l-7.1,13.3V41.9z"/>
	<path d="M358.4,40.1c-0.8,0.7-1.7,1.2-2.6,1.5s-1.9,0.5-2.9,0.5c-1.3,0-2.4-0.2-3.4-0.7s-1.8-1.2-2.4-2s-0.9-1.9-0.9-2.9
		c0-1.2,0.3-2.2,1-3c0.7-0.8,1.6-1.6,2.9-2.2c-0.6-0.8-1-1.6-1.3-2.3s-0.4-1.4-0.4-2.1c0-1.4,0.5-2.6,1.5-3.4s2.4-1.3,4.1-1.3
		c1.1,0,2.1,0.2,2.9,0.6s1.5,0.9,2,1.6s0.7,1.4,0.7,2.3c0,1.2-0.4,2.2-1.2,3s-1.9,1.6-3.4,2.3c1,1.1,2,2.2,3.1,3.2
		c0.5-0.9,1-2,1.3-3.1l3.1,2.2c-0.5,1.3-1.1,2.4-1.8,3.5l2.9,2.8l-2.4,2.4L358.4,40.1z M355.9,37.7c-2-2-3.3-3.4-4-4.1
		c-0.6,0.4-1,0.8-1.3,1.2s-0.5,0.9-0.5,1.4c0,0.8,0.3,1.4,0.8,1.9s1.2,0.7,2.1,0.7C354,38.7,355,38.4,355.9,37.7z M353.2,29.6
		c0.8-0.5,1.5-0.9,1.9-1.4s0.7-1,0.7-1.6c0-0.5-0.2-0.9-0.5-1.2s-0.8-0.5-1.3-0.5c-0.6,0-1,0.2-1.4,0.6s-0.5,0.8-0.5,1.4
		C352.2,27.6,352.5,28.5,353.2,29.6z"/>
	<path d="M381.1,36.4H381h-3.8v5.5h-5V22.3h8.8c2.6,0,4.6,0.6,6,1.8s2.1,2.9,2.1,5.1c0,1.5-0.3,2.8-0.9,3.8
		c-0.6,1.1-1.5,1.9-2.6,2.5l4.1,6.5h-5.6L381.1,36.4z M381,32.5c1.1,0,1.9-0.3,2.5-0.8s0.9-1.3,0.9-2.4c0-1-0.3-1.8-0.9-2.3
		s-1.4-0.8-2.5-0.8h-3.8v6.2H381z"/>
	<path d="M397.5,26.2v3.9h9.4V34h-9.4V38h10.7v3.9h-15.7V22.3h15.4v3.9H397.5z"/>
	<path d="M428.7,31.9v7.6c-1.1,0.7-2.3,1.4-3.8,1.8s-2.9,0.7-4.3,0.7c-2,0-3.7-0.4-5.3-1.3s-2.9-2.1-3.8-3.6s-1.4-3.2-1.4-5.1
		c0-1.9,0.5-3.6,1.4-5.1s2.2-2.7,3.9-3.6s3.5-1.3,5.5-1.3c1.5,0,2.9,0.3,4.3,0.8s2.7,1.2,3.7,2.1l-2.8,3.4c-0.7-0.7-1.5-1.2-2.5-1.6
		s-1.9-0.6-2.8-0.6c-1.1,0-2,0.3-2.9,0.8s-1.6,1.2-2,2.1s-0.7,1.9-0.7,2.9c0,1.1,0.3,2.1,0.8,3s1.2,1.6,2.1,2.1s1.9,0.8,2.9,0.8
		c0.5,0,1.1-0.1,1.7-0.3s1.2-0.4,1.8-0.7v-5.1H428.7z"/>
	<path d="M432.2,41.9V22.3h5v19.6H432.2z"/>
	<path d="M452.7,22.7c1.4,0.4,2.6,0.9,3.6,1.6l-1.9,3.9c-1-0.6-2.1-1.1-3.3-1.5s-2.2-0.6-3-0.6c-0.7,0-1.2,0.1-1.6,0.4
		s-0.6,0.6-0.6,1.1c0,0.6,0.3,1.1,0.9,1.4s1.6,0.7,2.9,1.1c1.4,0.4,2.5,0.8,3.4,1.2s1.6,1,2.3,1.8c0.6,0.8,1,1.8,1,3.1
		c0,1.3-0.3,2.4-1,3.3s-1.6,1.6-2.8,2s-2.5,0.7-4,0.7c-1.6,0-3.2-0.3-4.8-0.8s-3-1.3-4.1-2.3l1.9-3.8c1,0.9,2.2,1.6,3.5,2.1
		s2.5,0.8,3.6,0.8c0.8,0,1.4-0.1,1.9-0.4s0.7-0.7,0.7-1.3c0-0.6-0.3-1.1-0.9-1.5s-1.6-0.7-2.9-1c-1.3-0.4-2.4-0.7-3.3-1.1
		s-1.6-0.9-2.2-1.7s-0.9-1.8-0.9-3c0-1.2,0.3-2.2,1-3.1s1.6-1.6,2.7-2.1s2.6-0.7,4.1-0.7C450,22.1,451.4,22.3,452.7,22.7z"/>
	<path d="M468.2,26.3v15.6h-5V26.3h-5.9v-4h16.7v4H468.2z"/>
	<path d="M481.2,26.2v3.9h9.4V34h-9.4V38h10.7v3.9h-15.7V22.3h15.4v3.9H481.2z"/>
	<path d="M504,36.4h-0.2H500v5.5h-5V22.3h8.8c2.6,0,4.6,0.6,6,1.8s2.1,2.9,2.1,5.1c0,1.5-0.3,2.8-0.9,3.8c-0.6,1.1-1.5,1.9-2.6,2.5
		l4.1,6.5h-5.6L504,36.4z M503.8,32.5c1.1,0,1.9-0.3,2.5-0.8s0.9-1.3,0.9-2.4c0-1-0.3-1.8-0.9-2.3s-1.4-0.8-2.5-0.8H500v6.2H503.8z"
		/>
</g>
</svg>
