<?xml version="1.0" encoding="utf-8"?>
<!-- Generator: Adobe Illustrator 19.2.1, SVG Export Plug-In . SVG Version: 6.00 Build 0)  -->
<svg version="1.1" id="Layer_1" xmlns="http://www.w3.org/2000/svg" xmlns:xlink="http://www.w3.org/1999/xlink" x="0px" y="0px"
	 viewBox="0 0 323.6 65.3" style="enable-background:new 0 0 323.6 65.3;" xml:space="preserve">
<style type="text/css">
	.st0{fill:#FFFFFF;stroke:#000000;stroke-width:4;stroke-miterlimit:10;}
	.st1{enable-background:new    ;}
</style>
<polygon class="st0" points="301.2,63.3 3.7,63.3 23.7,32.6 3.7,2 301.2,2 321.2,32.6 "/>
<g class="st1">
	<path d="M67.5,41.9v-7.6h-8.1v7.6h-5V22.3h5v8.1h8.1v-8.1h5v19.6H67.5z"/>
	<path d="M91.1,23.5c1.6,0.9,2.9,2.1,3.8,3.6c0.9,1.5,1.4,3.2,1.4,5.1c0,1.9-0.5,3.6-1.4,5.1c-0.9,1.5-2.2,2.7-3.8,3.6
		c-1.6,0.9-3.4,1.3-5.4,1.3c-2,0-3.8-0.4-5.4-1.3s-2.9-2.1-3.8-3.6c-0.9-1.5-1.4-3.2-1.4-5.1c0-1.9,0.5-3.6,1.4-5.1
		c0.9-1.5,2.2-2.7,3.8-3.6c1.6-0.9,3.4-1.3,5.4-1.3S89.5,22.6,91.1,23.5z M83,27.1c-0.9,0.5-1.5,1.2-2,2.1c-0.5,0.9-0.8,1.9-0.8,3
		s0.3,2.1,0.8,3c0.5,0.9,1.2,1.6,2,2.1c0.9,0.5,1.8,0.8,2.8,0.8c1,0,1.9-0.3,2.7-0.8c0.8-0.5,1.5-1.2,2-2.1c0.5-0.9,0.7-1.9,0.7-3
		s-0.2-2.1-0.7-3c-0.5-0.9-1.1-1.6-2-2.1c-0.8-0.5-1.7-0.8-2.7-0.8C84.8,26.3,83.8,26.6,83,27.1z"/>
	<path d="M115.6,41.9l-3.6-13.5l-3.7,13.5h-5.2l-6.4-19.6h5.3l3.8,14.4l3.7-14.4h4.9l3.8,14.4l3.8-14.4h5.1l-6.5,19.6H115.6z"/>
	<path d="M135.4,41.9V22.3h5v19.6H135.4z"/>
	<path d="M153.4,26.3v15.6h-5V26.3h-5.9v-4h16.7v4H153.4z"/>
	<path d="M184.8,41.9l-3.6-13.5l-3.7,13.5h-5.2l-6.4-19.6h5.3l3.8,14.4l3.7-14.4h4.9l3.8,14.4l3.8-14.4h5.1l-6.5,19.6H184.8z"/>
	<path d="M212.8,23.5c1.6,0.9,2.9,2.1,3.8,3.6s1.4,3.2,1.4,5.1c0,1.9-0.5,3.6-1.4,5.1s-2.2,2.7-3.8,3.6s-3.4,1.3-5.4,1.3
		c-2,0-3.8-0.4-5.4-1.3s-2.9-2.1-3.8-3.6s-1.4-3.2-1.4-5.1c0-1.9,0.5-3.6,1.4-5.1s2.2-2.7,3.8-3.6s3.4-1.3,5.4-1.3
		S211.2,22.6,212.8,23.5z M204.7,27.1c-0.9,0.5-1.5,1.2-2,2.1s-0.8,1.9-0.8,3s0.3,2.1,0.8,3c0.5,0.9,1.2,1.6,2,2.1
		c0.9,0.5,1.8,0.8,2.8,0.8c1,0,1.9-0.3,2.7-0.8c0.8-0.5,1.5-1.2,2-2.1c0.5-0.9,0.7-1.9,0.7-3s-0.2-2.1-0.7-3s-1.1-1.6-2-2.1
		s-1.7-0.8-2.7-0.8C206.5,26.3,205.6,26.6,204.7,27.1z"/>
	<path d="M229.5,36.4h-0.2h-3.8v5.5h-5V22.3h8.8c2.6,0,4.6,0.6,6,1.8s2.1,2.9,2.1,5.1c0,1.5-0.3,2.8-0.9,3.8
		c-0.6,1.1-1.5,1.9-2.6,2.5l4.1,6.5h-5.6L229.5,36.4z M229.4,32.5c1.1,0,1.9-0.3,2.5-0.8s0.9-1.3,0.9-2.4c0-1-0.3-1.8-0.9-2.3
		s-1.4-0.8-2.5-0.8h-3.8v6.2H229.4z"/>
	<path d="M248.5,34.2l-2.6,2.9v4.8h-5V22.3h5v8.5l7.5-8.5h5.8l-7.3,8.1l7.8,11.5h-6L248.5,34.2z"/>
	<path d="M273.5,22.7c1.4,0.4,2.6,0.9,3.6,1.6l-1.9,3.9c-1-0.6-2.1-1.1-3.3-1.5s-2.2-0.6-3-0.6c-0.7,0-1.2,0.1-1.6,0.4
		s-0.6,0.6-0.6,1.1c0,0.6,0.3,1.1,0.9,1.4s1.6,0.7,2.9,1.1c1.4,0.4,2.5,0.8,3.4,1.2s1.6,1,2.3,1.8c0.6,0.8,1,1.8,1,3.1
		c0,1.3-0.3,2.4-1,3.3c-0.7,0.9-1.6,1.6-2.8,2c-1.2,0.5-2.5,0.7-4,0.7c-1.6,0-3.2-0.3-4.8-0.8s-3-1.3-4.1-2.3l1.9-3.8
		c1,0.9,2.2,1.6,3.5,2.1c1.3,0.6,2.5,0.8,3.6,0.8c0.8,0,1.4-0.1,1.9-0.4s0.7-0.7,0.7-1.3c0-0.6-0.3-1.1-0.9-1.5
		c-0.6-0.3-1.6-0.7-2.9-1c-1.3-0.4-2.4-0.7-3.3-1.1s-1.6-0.9-2.2-1.7s-0.9-1.8-0.9-3c0-1.2,0.3-2.2,1-3.1s1.6-1.6,2.7-2.1
		s2.6-0.7,4.1-0.7C270.7,22.1,272.1,22.3,273.5,22.7z"/>
</g>
</svg>
