<svg viewBox="0 0 32 32" version="1.1" xmlns="http://www.w3.org/2000/svg" xmlns:xlink="http://www.w3.org/1999/xlink">
  <path d="M15.5680463,21.0022 L9.8153278,15.02245 C9.49399738,14.692575 9.49399738,14.15795 9.8153278,13.826325 L10.9773769,12.6302 C11.2987074,12.302075 11.8180957,12.302075 12.1394261,12.6302 L16.1490709,16.817075 L25.0896173,7.49745 C25.4109477,7.167575 25.930336,7.167575 26.2516664,7.49745 L27.4137155,8.69445 C27.7350459,9.024325 27.7350459,9.5607 27.4137155,9.888825 L16.7300954,21.0022 C16.408765,21.332075 15.8893767,21.332075 15.5680463,21.0022 Z M27.6709442,16 L27.6380715,16 C26.7390038,16 26.010874,16.77525 26.010874,17.7325 L26.010874,25.625 C26.010874,26.108 25.6427,26.5 25.1890571,26.5 L7.10908465,26.5 C6.6554417,26.5 6.28726772,26.108 6.28726772,25.625 L6.28726772,6.375 C6.28726772,5.892 6.6554417,5.5 7.10908465,5.5 L21.0964088,5.5 C21.9954765,5.5 22.7236063,4.72475 22.7236063,3.7675 L22.7236063,3.7325 C22.7236063,2.77525 21.9954765,2 21.0964088,2 L17.8091411,2 L16.1490709,2 L6.28726772,2 L4.64363386,2 C3.73552615,2 3,2.783125 3,3.75 L3,28.25 C3,29.216875 3.73552615,30 4.64363386,30 L27.6545079,30 C28.5626156,30 29.2981417,29.216875 29.2981417,28.25 L29.2981417,17.7325 C29.2981417,16.77525 28.5700119,16 27.6709442,16 Z"></path>
</svg>
