<svg viewBox="2 4 28 25" version="1.1" xmlns="http://www.w3.org/2000/svg" xmlns:xlink="http://www.w3.org/1999/xlink">
  <path d="M22.125,7.5 C24.575,7.5 26.5,9.8625 26.5,12.75 C26.5,18.2625 19.85,22.725 16,24.65 C12.15,22.725 5.5,18.2625 5.5,12.75 C5.5,9.8625 7.425,7.5 9.875,7.5 C11.0125,7.5 12.2375,8.2875 13.2,9.6 L14.6,11.175 C15.3,12.1375 16.7,12.1375 17.4,11.175 L18.8,9.6 C19.7625,8.2875 20.9875,7.5 22.125,7.5 L22.125,7.5 Z M22.125,4 C19.675,4 17.4875,5.4875 16,7.5 C14.6,5.4875 12.325,4 9.875,4 C5.5,4 2,7.9375 2,12.75 C2,22.725 16,28.5 16,28.5 C16,28.5 30,22.725 30,12.75 C30,7.9375 26.5,4 22.125,4 L22.125,4 L22.125,4 Z"></path>
</svg>
