<svg viewBox="2 3 29 26" version="1.1" xmlns="http://www.w3.org/2000/svg" xmlns:xlink="http://www.w3.org/1999/xlink">
    <path d="M14.2072675,28.4861018 L12.8080617,28.4861018 L12.3708099,28.4861018 C6.51163556,27.6115981 2.05166702,22.5394771 2.05166702,16.4179516 C2.05166702,13.7944407 2.92617065,11.3458305 4.32537647,9.33447217 L2.31401811,6.62351091 C1.52696484,5.57410654 2.31401811,4.08745036 3.62577356,4.08745036 L6.77398665,4.08745036 L10.8841537,4.08745036 C11.9335581,4.08745036 12.7206114,5.04940436 12.4582603,6.09880872 L11.3214056,10.2964262 L10.4469019,13.3571889 C10.0971005,14.6689443 8.43554356,14.9312954 7.64849028,13.8818911 L6.59908592,12.3952349 C5.98693338,13.61954 5.63713192,14.9312954 5.63713192,16.4179516 C5.63713192,20.7904698 8.78534501,24.3759347 12.9829625,25.0755376 L14.3821683,25.0755376 C15.3441223,25.0755376 16.1311755,25.8625909 16.1311755,26.8245449 L16.1311755,26.8245449 C15.9562748,27.6990485 15.1692215,28.4861018 14.2072675,28.4861018 L14.2072675,28.4861018 L14.2072675,28.4861018 Z M27.6746235,23.23908 L29.6859819,25.9500412 C30.4730352,26.9994456 29.6859819,28.4861018 28.3742264,28.4861018 L25.2260134,28.4861018 L21.1158463,28.4861018 C20.0664419,28.4861018 19.2793886,27.5241478 19.5417397,26.4747434 L20.6785944,22.277126 L21.5530981,19.2163633 C21.9028995,17.9046078 23.5644564,17.6422567 24.3515097,18.6916611 L25.4009141,20.1783173 C26.0130666,18.9540122 26.3628681,17.6422567 26.3628681,16.1556005 C26.3628681,11.7830824 23.214655,8.19761745 19.0170375,7.49801454 L17.7052821,7.49801454 C16.7433281,7.49801454 15.9562748,6.71096127 15.9562748,5.74900727 L15.9562748,5.74900727 C15.9562748,4.78705327 16.7433281,4 17.7052821,4 L19.1044879,4 L19.5417397,4 C25.4009141,4.87450364 29.8608826,9.94662472 29.8608826,16.0681502 C29.948333,18.7791114 29.0738293,21.2277216 27.6746235,23.23908 L27.6746235,23.23908 L27.6746235,23.23908 Z"></path>
</svg>
