<?xml version="1.0" encoding="utf-8"?>
<!-- Generator: Adobe Illustrator 19.2.1, SVG Export Plug-In . SVG Version: 6.00 Build 0)  -->
<svg version="1.1" id="Layer_1" xmlns="http://www.w3.org/2000/svg" xmlns:xlink="http://www.w3.org/1999/xlink" x="0px" y="0px"
	 viewBox="0 0 301 53.8" style="enable-background:new 0 0 301 53.8;" xml:space="preserve">
<path style="fill:#42AB4C;" d="M54.9,0.2c-6.6-0.1-10.1,4.3-11.1,5.6C42.9,4.5,39.5,0.1,32.9,0C26.4-0.1,21,4.4,19.8,10.4
	c4.2-1.1,8.9-0.1,12.2,3.2c0.3,0.3,0.6,0.6,0.8,0.9c0.1,0,0.2,0,0.4,0c2.6,0,4.6,0.8,6.2,1.7c2-2.3,5-3.7,8.4-3.7
	c5.5,0.1,8.4,3.7,9.1,4.9c0.8-1.1,3.7-4.7,9.2-4.7c0.6,0,1.3,0.1,1.9,0.2C67.9,6,62.1,0.3,54.9,0.2z"/>
<path style="fill:#84C77B;" d="M20.8,26.3c0-1.6,0.4-3.2,1-4.6c-1.5-3.2-2.3-6.2-2.3-9c0-0.8,0.1-1.6,0.3-2.3
	c-1.2,0.3-2.3,0.8-3.3,1.5c2.3,2.5,2.2,6.4-0.2,8.8c-1.6,1.6-3.8,2.1-5.8,1.7c0,3.3,1.2,6.6,3.7,9.1c2.5,2.5,5.8,3.7,9,3.7
	C21.6,32.1,20.8,29.1,20.8,26.3z"/>
<path style="fill:#16A14D;" d="M16.4,11.8c-0.1-0.1-0.1-0.2-0.2-0.2c-2.5-2.5-6.5-2.5-9.1,0c-2.5,2.5-2.5,6.5,0,9.1
	c0.9,0.9,2.1,1.5,3.3,1.7c0-3.2,1.3-6.3,3.7-8.8C14.8,12.9,15.6,12.3,16.4,11.8z"/>
<path style="fill:#1D7C3E;" d="M16.2,20.7c2.4-2.4,2.5-6.3,0.2-8.8c-0.8,0.5-1.6,1.1-2.3,1.8c-2.4,2.4-3.7,5.6-3.7,8.8
	C12.5,22.8,14.7,22.2,16.2,20.7z"/>
<path style="fill:#84C77B;" d="M4.7,40.7C3,39,3,36.1,4.7,34.4c1.8-1.8,4.6-1.8,6.4,0c1.8,1.8,1.8,4.6,0,6.4
	C9.4,42.5,6.5,42.5,4.7,40.7z"/>
<path style="fill:#58BC70;" d="M0.8,7.4c-1-1-1-2.7,0-3.7c1-1,2.7-1,3.7,0c1,1,1.1,2.7,0,3.7C3.5,8.5,1.8,8.5,0.8,7.4z"/>
<g>
	<g>
		<path style="fill:#585959;" d="M75.7,38.4c-1.9,2-4.7,3.2-8.5,3.2c-6.8,0-10.4-4.5-10.4-9.9c0-5.3,3.6-9.9,10.3-9.9
			c6.6,0,9.9,4.2,9.9,9.7c0,0.7-0.1,1.4-0.2,2H63.1c0.5,2.3,2.3,3.3,4.6,3.3c1.7,0,3.7-0.6,5.2-1.6L75.7,38.4z M71.3,30
			c0-0.3,0-0.7-0.1-0.9c-0.3-1.7-1.7-2.5-3.8-2.5c-2.6,0-3.9,1.5-4.2,3.2l0,0.2H71.3z"/>
		<path style="fill:#585959;" d="M84.7,41.2l-7.7-19h6.5L88,34.6l4.4-12.3h6.5l-7.7,19H84.7z"/>
		<path style="fill:#585959;" d="M117.8,38.4c-1.9,2-4.7,3.2-8.5,3.2c-6.8,0-10.4-4.5-10.4-9.9c0-5.3,3.6-9.9,10.3-9.9
			c6.6,0,9.9,4.2,9.9,9.7c0,0.7-0.1,1.4-0.2,2h-13.8c0.5,2.3,2.3,3.3,4.6,3.3c1.7,0,3.7-0.6,5.2-1.6L117.8,38.4z M113.3,30
			c0-0.3,0-0.7-0.1-0.9c-0.3-1.7-1.7-2.5-3.8-2.5c-2.6,0-3.9,1.5-4.2,3.2l0,0.2H113.3z"/>
		<path style="fill:#585959;" d="M133.1,26.9h-1.1c-1,0-2.5,0.3-3.9,2.2v12.1h-6.4v-19h5.6l0.3,2.5c1.3-1.7,3-2.9,5.3-3l0.2,0V26.9z
			"/>
		<path style="fill:#585959;" d="M146.8,44.7c-1.1,2.6-2.6,4.1-4.4,5c-1.9,0.8-4,1-6.3,1V46c2,0,3.2-0.2,4.1-0.7
			c0.9-0.6,1.4-1.4,1.9-2.5l0.6-1.6h-0.7l-7.7-19h6.5l4.3,12.1l4.4-12.1h6.5L146.8,44.7z"/>
		<path style="fill:#585959;" d="M171.3,41.2l-0.3-2.2c-1.4,1.7-3.9,2.6-6.3,2.6c-4.5,0-8.8-2.9-8.8-9.9c0-6.6,4.4-9.9,9-9.9
			c2,0,3.9,0.6,5.6,2.1v-9.5h6.4v26.8H171.3z M170.6,29.2c-1.1-1.6-2.3-2.3-4-2.3c-2.7,0-4.3,1.6-4.3,4.8c0,3.2,1.7,4.9,4.4,4.9
			c1.6,0,3.1-0.7,3.9-2.3V29.2z"/>
		<path style="fill:#585959;" d="M180.5,24.1c2.6-1.4,5.8-2.2,8.7-2.2c4.8,0,9.2,2.2,9.2,7.4v12h-5.6l-0.3-2.2
			c-1.5,1.8-3.7,2.7-6,2.7c-3.6,0-7.1-2.4-7.1-6.5c0-4.5,4.1-6.5,8.1-6.5c1.6,0,3.2,0.3,4.5,0.9l0-0.5c-0.1-2-1.9-2.7-4-2.7
			c-2.1,0-4.6,0.8-6.1,1.6L180.5,24.1z M192.1,33.4c-0.9-0.5-2.1-0.8-3.3-0.8c-1.8,0-3.4,0.7-3.4,2.2c0,1.5,1.4,2.2,3.1,2.2
			c1.3,0,2.6-0.4,3.6-1.5V33.4z"/>
		<path style="fill:#585959;" d="M211.8,44.7c-1.1,2.6-2.6,4.1-4.4,5c-1.9,0.8-4,1-6.3,1V46c2,0,3.2-0.2,4.1-0.7
			c0.9-0.6,1.4-1.4,1.9-2.5l0.6-1.6h-0.7l-7.7-19h6.5l4.3,12.1l4.4-12.1h6.5L211.8,44.7z"/>
		<path style="fill:#585959;" d="M229,24.3c1.5-1.5,3.2-2.5,5.5-2.5c3.5,0,7.4,2.2,7.4,7.4v12.1h-6.4V30.5c0-2.7-1.3-3.6-2.9-3.6
			c-1,0-2,0.2-3.6,2.3v12h-6.4V14.4h6.4V24.3z"/>
		<path style="fill:#585959;" d="M263.2,38.4c-1.9,2-4.7,3.2-8.5,3.2c-6.8,0-10.4-4.5-10.4-9.9c0-5.3,3.6-9.9,10.3-9.9
			c6.6,0,9.9,4.2,9.9,9.7c0,0.7-0.1,1.4-0.2,2h-13.8c0.5,2.3,2.3,3.3,4.6,3.3c1.7,0,3.7-0.6,5.2-1.6L263.2,38.4z M258.8,30
			c0-0.3,0-0.7-0.1-0.9c-0.3-1.7-1.7-2.5-3.8-2.5c-2.6,0-3.9,1.5-4.2,3.2l0,0.2H258.8z"/>
		<path style="fill:#585959;" d="M278.5,26.9h-1.1c-1,0-2.5,0.3-3.9,2.2v12.1h-6.4v-19h5.6l0.3,2.5c1.3-1.7,3-2.9,5.3-3l0.2,0V26.9z
			"/>
		<path style="fill:#585959;" d="M301,31.8c0,5.4-3.7,9.9-10.8,9.9c-7.1,0-10.8-4.6-10.8-9.9c0-5.3,3.7-9.9,10.8-9.9
			C297.2,21.9,301,26.2,301,31.8z M290.2,26.9c-2.6,0-4.5,1.7-4.5,4.9c0,3.1,1.8,4.9,4.5,4.9c2.7,0,4.5-1.6,4.5-4.9
			C294.7,28.5,292.9,26.9,290.2,26.9L290.2,26.9z"/>
	</g>
</g>
<path style="fill:#1D7C3E;" d="M56.9,17.4c0.3-0.4,0.8-1,1.5-1.7c-1.3-0.5-2.6-0.9-4.1-1C55.7,15.8,56.5,16.9,56.9,17.4z"/>
<path style="fill:#58BC70;" d="M30.1,33c-2.1,1.4-4.5,2.1-7,2.1c1.5,2.8,3.6,5.8,6.4,8.9c3.5,3.9,11.2,9.7,13.5,9.7
	c1.8,0,7.2-3.6,11.1-7c-2.2-1.3-5.2-3.5-7.5-5.7c-1.3,0.7-2.5,1.2-3.1,1.2C41.3,42.3,34.3,37.1,30.1,33z"/>
<path style="fill:#2C9145;" d="M21.8,21.7c1.9-4.2,6.1-7.1,11-7.2c-0.3-0.3-0.5-0.6-0.8-0.9c-3.3-3.3-8-4.4-12.2-3.2
	c-0.2,0.8-0.2,1.5-0.3,2.3C19.5,15.6,20.3,18.6,21.8,21.7z"/>
<path style="fill:#1D7C3E;" d="M32.8,14.5c4.1,5,3.8,12.3-0.8,17c-0.6,0.6-1.2,1.1-1.9,1.5c4.1,4.1,11.2,9.2,13.3,9.3
	c0.7,0,1.8-0.5,3.1-1.2c-0.8-0.7-1.5-1.4-2-2c-5.3-5.8-7.9-11.1-7.8-15.9c0-0.4,0-0.7,0.1-1c0-0.1,0-0.3,0.1-0.4
	c0-0.2,0.1-0.4,0.1-0.6c0-0.2,0.1-0.3,0.1-0.5c0-0.2,0.1-0.3,0.1-0.5c0.1-0.2,0.1-0.3,0.2-0.5c0-0.1,0.1-0.3,0.2-0.4
	c0.1-0.2,0.2-0.4,0.2-0.5c0.1-0.1,0.1-0.2,0.2-0.3c0.1-0.2,0.2-0.4,0.3-0.6c0-0.1,0.1-0.1,0.1-0.2c0.1-0.2,0.3-0.4,0.4-0.6
	c0,0,0.1-0.1,0.1-0.1c0.2-0.2,0.3-0.4,0.5-0.6c-1.6-0.9-3.6-1.7-6.2-1.7C33.1,14.5,32.9,14.5,32.8,14.5z"/>
<path style="fill:#2C9145;" d="M29,31.8c-3.2-3.5-5.6-6.9-7.2-10.1c-0.6,1.4-1,3-1,4.6c0,2.8,0.8,5.7,2.4,8.8c2.4,0,4.9-0.7,7-2.1
	C29.7,32.6,29.3,32.2,29,31.8z"/>
<path style="fill:#196131;" d="M21.8,21.7c1.6,3.2,4,6.6,7.2,10.1c0.4,0.4,0.7,0.8,1.2,1.2c0.7-0.4,1.3-1,1.9-1.5
	c4.7-4.7,4.9-12,0.8-17C27.9,14.6,23.6,17.6,21.8,21.7z"/>
</svg>
